<?xml version="1.0" encoding="UTF-8"?>
<!DOCTYPE svg PUBLIC "-//W3C//DTD SVG 1.1//EN" "http://www.w3.org/Graphics/SVG/1.1/DTD/svg11.dtd">
<!-- Creator: CorelDRAW 2020 (64-Bit) -->
<svg xmlns="http://www.w3.org/2000/svg" xml:space="preserve" width="104.775mm" height="42.7469mm" version="1.1" style="shape-rendering:geometricPrecision; text-rendering:geometricPrecision; image-rendering:optimizeQuality; fill-rule:evenodd; clip-rule:evenodd"
viewBox="0 0 8976.99 3662.5"
 xmlns:xlink="http://www.w3.org/1999/xlink"
 xmlns:xodm="http://www.corel.com/coreldraw/odm/2003">
 <defs>
  <style type="text/css">
   <![CDATA[
    .fil1 {fill:#58595B}
    .fil0 {fill:#E57A00}
   ]]>
  </style>
 </defs>
 <g id="Katman_x0020_1">
  <metadata id="CorelCorpID_0Corel-Layer"/>
  <g id="_1785565162192">
   <path class="fil0" d="M664.96 1637.39c0,262.25 423.16,262.25 423.16,0 0,-232.88 -120.9,100.13 -120.9,-513.83l785.86 0c0,577.01 -58.13,251.73 -110.13,464.73 -69.28,283.79 412.39,346.62 412.39,49.1 0,-105.2 -73.8,-113.9 -106.8,-195.46 -35.17,-86.94 -14.1,-220.46 -14.1,-318.37 117.8,27.44 193.37,74.74 264.57,158.59 205.6,242.14 128.36,744.08 128.36,1231.78 0,286.66 -227.17,513.83 -513.83,513.83l-1390.38 0 0 -1481.04c0,-199.34 188.9,-375.62 392.93,-423.16 0,561.24 -151.13,280.36 -151.13,513.83zm302.26 -1057.89c0,-570.28 785.86,-522.35 785.86,-60.45l0 181.36 -785.86 0 0 -120.9zm-151.13 -120.9l0 241.8c-420.76,35.02 -816.09,420.75 -816.09,876.54l0 1873.98 1753.08 0c592.67,0 997.45,-404.77 997.45,-997.44 0,-648.4 86.28,-1025.23 -240.71,-1451.92 -103.71,-135.32 -356.15,-282.92 -575.38,-301.16 0,-1033.4 -1118.35,-753.48 -1118.35,-241.8z"/>
   <path class="fil1" d="M8342.25 2816.18c-646.26,0 -536.13,-816.09 -90.68,-816.09 688.3,0 536.85,816.09 90.68,816.09zm-725.42 725.41c111.93,29.89 142.16,90.65 272.03,120.91l0 -695.19c651.09,344.51 1088.12,-128.31 1088.12,-483.61 0,-232.87 2.57,-361.25 -172.87,-552.54 -346.07,-377.35 -1079.1,-231.39 -1181.34,377.14 -42.47,252.82 -5.95,935.53 -5.95,1233.29z"/>
   <path class="fil1" d="M3475.94 2453.48c0,-253.32 106.17,-463.6 396.57,-475.06 507.22,-20.01 632.8,837.77 -33.87,837.77 -181.58,0 -362.7,-181.13 -362.7,-362.7zm-272.03 -1148.57l0 1148.57c0,332.8 291.99,634.73 725.41,634.73 331.33,0 634.74,-293.29 634.74,-725.42 0,-310.37 -286.36,-634.73 -604.51,-634.73 -254.8,0 -282.2,-13.97 -483.6,120.9l0 -755.63c-151.58,80.2 -151.51,130.87 -272.03,211.57z"/>
   <path class="fil1" d="M6438.04 2574.38c-41.93,-179.96 -69.84,-365.34 144.09,-520.87 142.84,-87.77 268.28,-82.15 399.97,-53.42 -28.67,107.36 -133.25,178.66 -249.32,294.73 -100.4,100.4 -181.42,203.67 -294.73,279.55zm-302.26 -151.13c0,586.21 850.14,991.76 1282.45,315.23 86.06,-134.68 77.7,-175.68 77.7,-345.46l-241.8 0c-27.49,117.95 -35.09,198.08 -111.68,281.25 -167.15,181.49 -315.55,152.99 -492.83,111.68 80.76,-120.6 725.42,-698.2 725.42,-755.63 0,-158.65 -475.13,-451.12 -886.91,-221.95 -220.81,122.9 -352.34,328.13 -352.34,614.88z"/>
   <path class="fil1" d="M4956.99 2483.7c0,-548.4 341.29,-488.8 574.28,-483.6 -32.2,92.32 -73.26,108.33 -128.27,173.99 -58.19,56.74 -93.7,93.4 -151.27,150.97 -133.19,133.19 -294.73,350.98 -294.73,158.64zm-272.03 -90.67c0,920.69 1360.15,921.77 1360.15,0l-241.81 0c-49.93,104.07 -33.27,173.76 -114.12,278.81 -113.41,147.38 -251.27,144.35 -399.72,144.35 -205.73,0 41.95,-150.84 236.7,-398.03 122.97,-156.07 289.47,-255.93 398.03,-418.06 -202.33,-302.15 -665.24,-331.69 -876.4,-211.44 -135.3,77.04 -240.77,189.02 -303.36,331.37 -27.95,63.57 -59.48,178.11 -59.48,273z"/>
  </g>
 </g>
</svg>
